<svg width="62" height="77" viewBox="0 0 62 77" fill="none" xmlns="http://www.w3.org/2000/svg">
<g clip-path="url(#clip0_241_1450)">
<path d="M26.5901 24.1699C26.5901 24.1699 26.5601 24.1699 26.5401 24.1799C26.3401 24.2199 26.1401 24.0999 26.1001 23.8899C25.9701 23.2699 26.1901 23.0399 26.5101 22.8099C26.6001 22.7399 26.7001 22.6699 26.8001 22.5699C26.8801 22.3799 26.9701 21.6199 27.0301 21.1199C27.1801 19.8899 27.2601 19.4899 27.4101 19.2899C27.4801 19.0599 27.3301 18.1799 27.2601 17.7499C27.1701 17.1999 27.1201 16.8799 27.1401 16.6799C27.2401 15.7899 27.4601 15.0499 27.6801 14.3199C27.9401 13.4399 28.1901 12.6099 28.2001 11.5899C28.2001 11.2499 28.2001 10.8799 28.3601 10.5299C28.5301 10.1399 28.8501 9.85986 29.1001 9.62986L30.9101 8.02986C31.0601 7.88986 31.3001 7.90986 31.4401 8.05986C31.5801 8.20986 31.5601 8.44986 31.4101 8.58986L29.6001 10.1899C29.3801 10.3899 29.1501 10.5899 29.0501 10.8299C28.9601 11.0499 28.9601 11.3099 28.9501 11.5999C28.9501 12.7399 28.6701 13.6499 28.4001 14.5399C28.1901 15.2299 27.9801 15.9399 27.8901 16.7599C27.8801 16.8699 27.9501 17.3099 28.0001 17.6199C28.2001 18.8099 28.2601 19.4199 28.0001 19.7299C27.9201 19.9099 27.8301 20.6799 27.7601 21.1899C27.6001 22.4699 27.5301 22.8499 27.3501 23.0299C27.1901 23.1999 27.0401 23.3099 26.9301 23.3899C26.8801 23.4299 26.8001 23.4799 26.7901 23.5099C26.7901 23.5099 26.7801 23.5599 26.8101 23.7099C26.8501 23.8999 26.7401 24.0799 26.5701 24.1399L26.5901 24.1699Z" fill="white"/>
<path d="M18.7701 24.2999C18.6901 24.3299 18.5901 24.3299 18.5001 24.2999C17.2301 23.7699 15.6301 22.9999 14.4601 21.7099C13.9101 21.0999 13.4501 20.3799 13.0101 19.6899C12.1801 18.3899 11.4001 17.1599 10.0801 16.7099C9.12006 16.3899 8.07005 16.5499 6.95005 16.7199C5.60005 16.9299 4.21006 17.1499 2.99006 16.4399C2.81005 16.3399 2.75006 16.1099 2.85006 15.9299C2.95006 15.7499 3.18005 15.6899 3.36005 15.7899C4.36005 16.3599 5.56005 16.1799 6.84005 15.9799C8.00005 15.7999 9.19005 15.6099 10.3201 15.9999C11.8901 16.5299 12.7801 17.9299 13.6401 19.2799C14.0601 19.9499 14.5001 20.6399 15.0101 21.1999C16.0801 22.3799 17.5901 23.0999 18.7801 23.5999C18.9701 23.6799 19.0601 23.8999 18.9801 24.0899C18.9401 24.1899 18.8601 24.2599 18.7601 24.2999H18.7701Z" fill="white"/>
<path d="M25.7401 43.3899C25.9501 46.0899 25.9801 46.2999 25.9001 47.7299C26.2301 47.8199 26.5401 48.1099 26.8401 48.5699C27.8201 50.0999 29.0401 51.9999 29.0801 54.1199C29.0801 54.2799 28.9801 54.4299 28.8301 54.4799C28.7901 54.4899 28.7501 54.4999 28.7101 54.4999C28.5001 54.4999 28.3301 54.3399 28.3301 54.1299C28.3001 52.2199 27.1401 50.4199 26.2101 48.9699C25.9701 48.5999 25.7401 48.3999 25.5901 48.4499C25.4701 48.4799 25.3501 48.4499 25.2501 48.3699C25.1501 48.2899 25.1101 48.1699 25.1201 48.0499C25.2401 46.7999 25.2801 45.4899 25.0601 42.5599L25.7401 43.3899Z" fill="white"/>
<path d="M35.5201 36.1999C38.2901 38.9999 39.8001 40.1799 40.2801 40.3499C40.4401 40.4099 40.6801 40.4899 40.8601 40.6899C41.0601 40.9099 41.1101 41.1899 41.1401 41.3899L42.3701 48.4199C42.4001 48.5999 42.3001 48.7799 42.1301 48.8399C42.1101 48.8399 42.0901 48.8499 42.0701 48.8599C41.8701 48.8999 41.6701 48.7599 41.6401 48.5599L40.4101 41.5299C40.3901 41.4099 40.3601 41.2599 40.3101 41.1999C40.2601 41.1399 40.1301 41.0999 40.0401 41.0699C39.0301 40.7199 37.7801 39.5199 36.3301 38.0599L35.5201 36.2199V36.1999Z" fill="white"/>
<path d="M21.39 15.4799C20.14 14.3399 19.6 12.4099 19.95 10.3199C20.11 9.32985 20.43 8.56986 20.91 7.98986C21.23 7.60986 21.62 7.31986 21.99 7.03986C22.19 6.88986 22.39 6.73986 22.57 6.57986C24.1 5.25986 24.67 2.92986 23.92 1.04986C23.89 0.969858 23.85 0.879857 23.8 0.829857C23.69 0.719857 23.46 0.719857 23.28 0.759857C22.72 0.879857 22.16 1.41986 22.26 1.96986C22.31 2.22986 22.59 2.40986 22.84 2.45986C22.94 2.47986 23.19 2.49986 23.29 2.29986L23.94 2.65986C23.71 3.06986 23.24 3.27986 22.71 3.18986C22.11 3.08986 21.62 2.63986 21.52 2.09986C21.44 1.62986 21.58 1.14985 21.92 0.749855C22.23 0.389855 22.66 0.129862 23.12 0.0298615C23.62 -0.0701389 24.07 0.0298548 24.34 0.319855C24.47 0.459855 24.55 0.619862 24.61 0.779861C25.47 2.93986 24.81 5.61986 23.06 7.13986C22.86 7.31986 22.64 7.46986 22.44 7.62986C22.08 7.89986 21.75 8.14986 21.48 8.45986C21.08 8.92986 20.82 9.56986 20.68 10.4299C20.37 12.2699 20.83 13.9399 21.89 14.9199L21.39 15.4699V15.4799Z" fill="white"/>
<path d="M19.1801 16.3199L18.4601 16.5299L17.1001 11.7999C17.0401 11.5999 16.9801 11.3899 16.8701 11.2399C16.7301 11.0599 16.4901 10.9399 16.2601 10.8299C15.6301 10.5299 14.9901 10.2099 14.3101 10.1199C13.6201 10.0199 12.9701 10.1899 12.5801 10.5799C12.4701 10.6799 12.3801 10.8099 12.2801 10.9499C12.1901 11.0799 12.0901 11.2099 11.9701 11.3299C11.2401 12.1099 9.98006 12.3399 9.03006 11.8499C8.08006 11.3599 7.53006 10.1999 7.74006 9.15991C7.91006 8.34991 8.66006 7.57991 9.51006 7.73991C10.1401 7.85991 10.6001 8.4699 10.5401 9.10991C10.4801 9.74991 9.91005 10.2599 9.27005 10.2499H9.23006C8.99006 10.2199 8.81005 10.0299 8.79005 9.77991C8.77005 9.52991 8.92006 9.3099 9.15005 9.2499L9.27005 9.69991V9.51991C9.52005 9.51991 9.77006 9.29991 9.80006 9.04991C9.82006 8.79991 9.62005 8.52991 9.38005 8.48991C8.98005 8.41991 8.57006 8.86991 8.47005 9.32991C8.32006 10.0599 8.71006 10.8699 9.37006 11.2099C10.0301 11.5499 10.9201 11.3999 11.4201 10.8499C11.5101 10.7499 11.5901 10.6499 11.6801 10.5299C11.7901 10.3799 11.9101 10.2199 12.0501 10.0799C12.6001 9.52991 13.4801 9.27991 14.4101 9.41991C15.2001 9.52991 15.9301 9.88991 16.5701 10.1999C16.8501 10.3399 17.2101 10.5099 17.4501 10.8199C17.6501 11.0799 17.7401 11.3799 17.8101 11.6299L19.1701 16.3599L19.1801 16.3199ZM9.13005 9.54991L9.40005 9.43991C9.52005 9.40991 9.56006 9.79991 9.55006 9.69991C9.55006 9.58991 9.44005 9.49991 9.32005 9.48991L9.13005 9.54991Z" fill="white"/>
<path d="M22.0901 35.0599C22.0901 35.0599 27.9901 40.0399 32.8401 33.1699" stroke="white" stroke-width="0.77" stroke-miterlimit="10"/>
<path d="M24.44 41.06C24.44 41.06 31.39 44.37 36.15 37.48" stroke="white" stroke-width="0.75" stroke-miterlimit="10"/>
<path d="M27.1701 46.11C27.1701 46.11 33.0501 50.9 37.8101 44.01" stroke="white" stroke-width="0.75" stroke-miterlimit="10"/>
<path d="M37.4201 53.8899C36.8701 54.0799 36.3101 54.1299 35.8701 54.1199C34.0301 54.0899 32.1401 53.1899 30.5601 51.5999C29.7001 50.7399 29.0601 49.6899 28.4501 48.6899C28.0701 48.0699 27.6801 47.4299 27.2501 46.8499C23.3801 41.6599 20.8501 32.2099 19.7201 26.2199L17.6201 23.0499C16.6101 22.9099 15.7301 21.9799 15.5901 20.8499C15.4601 19.8799 15.8201 18.8299 16.5901 17.8999C17.8801 16.3399 19.8601 15.5699 21.7701 14.9199C22.6301 14.6299 23.5501 14.3699 24.4001 14.7399C24.9801 14.9899 25.3801 15.4799 25.7101 15.9199C27.2101 17.9399 27.2001 19.3699 26.8701 20.2699L27.1701 20.6399C30.6401 24.3099 33.3001 29.7599 34.9201 33.6799C36.8801 38.4199 38.5001 43.7699 39.3601 48.3699C39.8301 50.8499 39.4801 52.4999 38.3101 53.4299C38.0301 53.6499 37.7301 53.7999 37.4301 53.9099L37.4201 53.8899ZM20.7301 27.7399C21.9701 33.6299 24.3401 41.7899 27.8001 46.4299C28.2501 47.0399 28.6501 47.6899 29.0401 48.3199C29.6601 49.3399 30.2501 50.2999 31.0501 51.0999C32.5101 52.5599 34.2201 53.3799 35.8801 53.4099C36.4501 53.4099 37.2601 53.3299 37.8701 52.8499C38.8201 52.0999 39.0801 50.6699 38.6601 48.4699C37.8101 43.9199 36.2001 38.6199 34.2601 33.9199C31.9601 28.3599 29.3301 23.9199 26.6401 21.0799L26.6201 21.0599L26.0401 20.3499L26.1301 20.1499C26.4601 19.4499 26.5501 18.2099 25.1301 16.3099C24.8601 15.9399 24.5301 15.5399 24.1001 15.3499C23.4801 15.0799 22.7001 15.2999 21.9701 15.5499C18.6501 16.6799 17.7501 17.5399 17.1001 18.3199C16.4601 19.0899 16.1601 19.9699 16.2601 20.7399C16.3701 21.5999 17.0701 22.3199 17.8201 22.3499H18.0001L19.4201 24.4899C19.4101 24.3999 19.3901 24.3099 19.3801 24.2299L20.0701 24.1199C20.1601 24.6699 20.2601 25.2799 20.3801 25.9299L21.6901 27.8999L21.1101 28.2799L20.7301 27.7099V27.7399Z" fill="white"/>
<path d="M20.1201 25.94C20.0201 30.7 16.4801 35.24 12.9301 38.42C9.93007 41.11 6.93007 43.8 3.93007 46.5C2.89007 47.43 1.84007 48.38 1.12007 49.58C0.400074 50.78 0.0700722 52.29 0.580072 53.59C0.970072 54.59 1.81007 55.36 2.76007 55.86C4.41007 56.73 6.38007 56.83 8.22007 56.5C13.7001 55.5 17.9601 50.85 19.9601 45.65C21.9601 40.45 23.0101 32.38 22.9301 26.82" fill="#231F20"/>
<path d="M10.2401 56.3199C9.60011 56.5499 8.95011 56.7199 8.29011 56.8399C6.80011 57.1099 4.60011 57.2199 2.61011 56.1699C1.48011 55.5799 0.65011 54.7099 0.270111 53.7199C-0.219889 52.4499 -0.0098896 50.8399 0.840111 49.4099C1.59011 48.1599 2.67011 47.1899 3.71011 46.2499L12.7101 38.1699C15.3001 35.8399 19.6701 31.1599 19.7801 25.9399H20.4801C20.4301 28.1999 19.6401 30.5599 18.1201 32.9699C16.9001 34.8999 15.1901 36.8799 13.1701 38.6899L4.17011 46.7699C3.16011 47.6699 2.12011 48.6099 1.43011 49.7699C0.690111 51.0099 0.500111 52.3999 0.91011 53.4699C1.23011 54.3099 1.95011 55.0499 2.93011 55.5599C4.75011 56.5099 6.78011 56.4099 8.17011 56.1599C10.6801 55.6999 13.1001 54.3999 15.1601 52.3999C17.0801 50.5399 18.6201 48.1699 19.6401 45.5199C21.6801 40.2099 22.6701 32.0899 22.5901 26.8199H23.2901C23.3701 32.1499 22.3701 40.3899 20.3001 45.7699C19.2501 48.4999 17.6401 50.9699 15.6601 52.8899C14.0301 54.4699 12.1901 55.6299 10.2601 56.3099L10.2401 56.3199Z" fill="white"/>
<path d="M5.04016 30.8199C7.59016 28.2299 13.8502 24.2899 17.4702 24.0799C19.8002 23.9499 22.5302 24.6399 23.4202 26.7899C23.5802 27.1599 6.31016 39.0499 4.89016 39.6399C3.14016 40.3599 1.59016 39.7299 1.46016 37.5899C1.32016 35.2599 3.50016 32.3799 5.03016 30.8199H5.04016Z" fill="#231F20"/>
<path d="M4.79014 40.0499C3.83014 40.3899 2.95014 40.3399 2.28014 39.9199C1.79014 39.6099 1.20014 38.9599 1.12014 37.5999C1.05014 36.4799 1.46014 35.1799 2.33014 33.7199C3.19014 32.2699 4.24014 31.1199 4.79014 30.5599C7.34014 27.9799 13.6801 23.9299 17.4501 23.7199C18.7601 23.6499 20.0601 23.8299 21.1101 24.2399C22.3901 24.7399 23.3001 25.5699 23.7401 26.6399C23.7801 26.7299 23.7801 26.8299 23.7401 26.9299C23.6801 27.0599 23.6101 27.2499 20.8101 29.2699C19.2401 30.4099 17.1001 31.9099 14.7801 33.5199C10.6201 36.3899 5.79014 39.6299 5.03014 39.9399C4.95014 39.9699 4.88014 39.9999 4.80014 40.0299L4.79014 40.0499ZM5.28014 31.0599C3.60014 32.7599 1.68014 35.4899 1.81014 37.5699C1.86014 38.4099 2.15014 39.0299 2.65014 39.3399C3.18014 39.6699 3.93014 39.6699 4.76014 39.3199C5.36014 39.0699 9.32014 36.4599 14.1901 33.0999C19.3101 29.5699 22.3801 27.3199 23.0101 26.7399C22.6101 25.9299 21.8801 25.3099 20.8501 24.8999C19.8901 24.5199 18.7001 24.3499 17.4801 24.4199C15.9001 24.5099 13.6001 25.3699 11.0101 26.8499C8.76014 28.1399 6.56014 29.7499 5.27014 31.0499L5.28014 31.0599Z" fill="white"/>
<path d="M29.4601 24.9199C32.5301 28.5599 36.3001 28.2399 41.0601 28.4899C45.0801 28.6999 49.1101 28.9099 53.1301 29.1199C54.5201 29.1899 55.9401 29.2699 57.2501 29.7599C58.5601 30.2499 59.7601 31.2099 60.1901 32.5399C60.5201 33.5599 60.3501 34.6899 59.9201 35.6799C59.1801 37.3899 57.7101 38.7099 56.0701 39.5999C51.1801 42.2599 44.9401 41.3199 40.1201 38.5299C35.3001 35.7399 29.6001 31.5599 26.1701 27.1799" fill="#231F20"/>
<path d="M54.3901 40.7199C52.4501 41.3999 50.2901 41.6599 48.0401 41.4499C45.2801 41.1999 42.4901 40.2899 39.9501 38.8199C37.3201 37.2999 34.7101 35.5299 32.4101 33.7099C29.7001 31.5699 27.5101 29.4399 25.9001 27.3799L26.4501 26.9499C28.0301 28.9699 30.1801 31.0599 32.8501 33.1699C35.1201 34.9699 37.7001 36.7099 40.3001 38.2199C42.7501 39.6399 45.4501 40.5199 48.1001 40.7599C50.9601 41.0199 53.6601 40.5099 55.9001 39.2899C57.1401 38.6199 58.7801 37.4199 59.6001 35.5299C60.0401 34.5199 60.1301 33.4899 59.8601 32.6399C59.5101 31.5399 58.4901 30.5899 57.1301 30.0799C55.8601 29.6099 54.4601 29.5399 53.1101 29.4699L41.0401 28.8399C40.4801 28.8099 39.9301 28.7899 39.4001 28.7699C35.4301 28.6099 32.0001 28.4799 29.1901 25.1499L29.7201 24.6999C32.3301 27.7899 35.4601 27.9199 39.4201 28.0699C39.9501 28.0899 40.5001 28.1099 41.0701 28.1399L53.1401 28.7699C54.5401 28.8399 55.9901 28.9199 57.3601 29.4299C58.9201 30.0099 60.0901 31.1299 60.5101 32.4299C60.8301 33.4399 60.7301 34.6399 60.2301 35.8099C59.3401 37.8799 57.5601 39.1699 56.2301 39.8999C55.6401 40.2199 55.0301 40.4899 54.3901 40.7199Z" fill="white"/>
<path d="M41.9501 18.1198C38.3301 17.8198 31.0101 18.9098 28.1301 21.1198C26.2801 22.5398 24.6601 24.8498 25.3901 27.0598C25.5201 27.4398 46.3601 25.1998 47.8201 24.7198C49.6201 24.1298 50.3801 22.6398 49.0801 20.9298C47.6601 19.0698 44.1301 18.3098 41.9601 18.1298L41.9501 18.1198Z" fill="#231F20"/>
<path d="M48.0201 25.0099C48.0201 25.0099 47.9601 25.0299 47.9301 25.0399C47.1401 25.2999 41.3701 25.9999 36.3501 26.5299C33.5401 26.8299 30.9301 27.0799 29.0001 27.2399C25.5601 27.5299 25.3801 27.4399 25.2501 27.3699C25.1601 27.3199 25.0901 27.2499 25.0601 27.1499C24.7001 26.0499 24.8501 24.8199 25.4901 23.6099C26.0201 22.6099 26.8801 21.6199 27.9201 20.8299C30.9101 18.5299 38.3601 17.4599 41.9801 17.7599C42.7601 17.8199 44.3101 18.0099 45.9101 18.5499C47.5201 19.0899 48.6801 19.8099 49.3501 20.6999C50.1801 21.7799 50.1501 22.6699 49.9801 23.2199C49.7301 24.0099 49.0401 24.6499 48.0201 25.0099ZM25.6601 26.7499C26.5101 26.7699 30.3101 26.4699 36.4901 25.8099C42.3701 25.1799 47.0901 24.5799 47.7001 24.3699C48.5501 24.0899 49.1301 23.5999 49.3101 23.0099C49.4801 22.4499 49.3101 21.7899 48.7901 21.1199C47.5301 19.4699 44.3001 18.6499 41.9101 18.4499C40.0801 18.2999 37.3701 18.5099 34.8201 18.9999C31.9001 19.5699 29.5901 20.4099 28.3301 21.3799C27.3701 22.1199 26.5701 23.0299 26.0901 23.9399C25.5701 24.9199 25.4201 25.8699 25.6501 26.7399L25.6601 26.7499Z" fill="white"/>
</g>
<defs>
<clipPath id="clip0_241_1450">
<rect width="61.65" height="76.48" fill="white" transform="matrix(-1 0 0 -1 61.65 76.48)"/>
</clipPath>
</defs>
</svg>
