<svg width="28" height="28" viewBox="0 0 28 28" fill="none" xmlns="http://www.w3.org/2000/svg">
<path d="M8.02629 0.2117H19.6506C24.0789 0.2117 27.6769 3.80969 27.6769 8.23799V19.8623C27.6769 21.991 26.8312 24.0325 25.326 25.5377C23.8208 27.0429 21.7793 27.8886 19.6506 27.8886H8.02629C3.59799 27.8886 0 24.2906 0 19.8623V8.23799C0 6.10928 0.845625 4.06777 2.35085 2.56255C3.85607 1.05732 5.89758 0.2117 8.02629 0.2117ZM7.74952 2.97939C6.42825 2.97939 5.16111 3.50426 4.22683 4.43853C3.29256 5.37281 2.76769 6.63996 2.76769 7.96122V20.139C2.76769 22.8929 4.99567 25.1209 7.74952 25.1209H19.9273C21.2486 25.1209 22.5157 24.596 23.45 23.6617C24.3843 22.7274 24.9092 21.4603 24.9092 20.139V7.96122C24.9092 5.20737 22.6812 2.97939 19.9273 2.97939H7.74952ZM21.1036 5.05515C21.5624 5.05515 22.0024 5.2374 22.3268 5.5618C22.6512 5.8862 22.8334 6.32618 22.8334 6.78495C22.8334 7.24373 22.6512 7.68371 22.3268 8.00811C22.0024 8.33251 21.5624 8.51476 21.1036 8.51476C20.6448 8.51476 20.2048 8.33251 19.8804 8.00811C19.556 7.68371 19.3738 7.24373 19.3738 6.78495C19.3738 6.32618 19.556 5.8862 19.8804 5.5618C20.2048 5.2374 20.6448 5.05515 21.1036 5.05515ZM13.8384 7.13091C15.6735 7.13091 17.4334 7.8599 18.7311 9.15751C20.0287 10.4551 20.7576 12.215 20.7576 14.0501C20.7576 15.8852 20.0287 17.6451 18.7311 18.9428C17.4334 20.2404 15.6735 20.9693 13.8384 20.9693C12.0033 20.9693 10.2434 20.2404 8.9458 18.9428C7.6482 17.6451 6.91921 15.8852 6.91921 14.0501C6.91921 12.215 7.6482 10.4551 8.9458 9.15751C10.2434 7.8599 12.0033 7.13091 13.8384 7.13091ZM13.8384 9.8986C12.7374 9.8986 11.6814 10.336 10.9029 11.1146C10.1243 11.8931 9.6869 12.9491 9.6869 14.0501C9.6869 15.1512 10.1243 16.2071 10.9029 16.9857C11.6814 17.7643 12.7374 18.2017 13.8384 18.2017C14.9395 18.2017 15.9954 17.7643 16.774 16.9857C17.5526 16.2071 17.99 15.1512 17.99 14.0501C17.99 12.9491 17.5526 11.8931 16.774 11.1146C15.9954 10.336 14.9395 9.8986 13.8384 9.8986Z" fill="white"/>
</svg>
