<svg width="595" height="128" viewBox="0 0 595 128" fill="none" xmlns="http://www.w3.org/2000/svg">
<path d="M66.2147 9.19685H66.1564V33.4694C66.1564 38.8244 67.3222 47.0899 73.6755 48.6615V49.9421H55.1984V48.7197C61.3186 47.0317 63.3586 38.8244 63.3586 33.4111V13.155C63.3586 4.54026 61.4934 3.25971 58.0545 2.21197V1.22241C61.0854 1.22241 64.1747 1.51347 66.9142 1.51347C69.6537 1.51347 73.1509 1.22241 76.1819 1.22241L90.4041 31.4321L103.344 1.22241C106.375 1.22241 109.464 1.51347 112.204 1.51347C114.943 1.51347 118.324 1.22241 121.355 1.22241V2.21197C116.867 3.37612 116.808 6.17008 116.808 10.3028V35.2738C116.808 42.0841 117.1 48.1376 122.637 48.4287V49.9421H97.6318V48.4287C103.169 48.1376 103.461 42.0841 103.461 35.2738V8.03272H103.227L84.517 51.4555H83.5261L66.1564 9.13863L66.2147 9.19685Z" fill="white"/>
<path d="M141.289 9.08034C141.289 3.95808 139.832 3.25957 137.442 2.50287V1.28052C140.939 1.28052 144.553 1.57157 147.992 1.57157C151.431 1.57157 155.045 1.28052 158.542 1.28052V2.50287C155.57 3.25957 154.695 5.06402 154.695 9.25496V35.3319C154.695 42.1422 154.987 48.1957 159.941 48.4868V50.0002H135.519V48.4868C141.056 48.1957 141.347 42.1422 141.347 35.3319V9.08034H141.289Z" fill="white"/>
<path d="M223.358 20.198L222.134 19.7323C220.91 10.7102 216.538 2.50292 206.28 2.50292C194.098 2.50292 190.367 16.5309 190.367 25.7859C190.367 35.0409 194.098 49.0689 206.28 49.0689C216.597 49.0689 222.251 42.7243 223.766 32.7126L224.815 32.3052L228.429 45.4018C220.793 49.36 214.032 51.4554 204.123 51.4554C189.493 51.4554 175.446 42.6079 175.446 25.7277C175.446 8.84752 189.493 0 204.123 0C213.508 0 221.784 1.80444 227.905 5.00585L223.3 20.1398L223.358 20.198Z" fill="white"/>
<path d="M259.205 30.6171L256.349 36.4961C255.358 38.8244 254.542 41.2109 254.542 42.7243C254.542 46.5078 256.874 48.0794 260.312 48.7779V50.2913C257.223 50.2913 253.726 50.0002 250.928 50.0002C248.13 50.0002 244.925 50.2913 241.835 50.2913V48.9525C244.05 48.4869 248.83 44.4123 252.735 37.02L270.863 2.73577C271.329 1.80445 272.203 0.0582275 272.669 0.0582275H272.844C273.369 0.0582275 274.593 2.03727 275.059 2.91038L294.76 39.8139C298.316 46.3914 300.414 48.0794 302.804 48.5451V50.2913C298.666 50.2913 293.77 50.0002 289.923 50.0002C286.076 50.0002 281.821 50.2913 277.566 50.2913V48.7779C280.014 48.254 281.646 47.9629 281.646 45.0526C281.646 43.3064 280.48 40.4542 279.081 37.7185L275.351 30.6171H259.263H259.205ZM260.429 28.056H274.068L267.19 14.3773L260.429 28.056Z" fill="white"/>
<path d="M320.232 10.9431C320.232 5.93725 319.3 3.20146 315.744 2.44476V1.22241C317.784 1.22241 319.766 1.28061 321.573 1.39703C323.38 1.45523 325.187 1.57169 326.877 1.57169C335.737 1.57169 342.09 1.51344 347.161 1.39703C352.232 1.33882 356.021 1.22241 359.693 1.22241L363.248 14.5519H361.558C355.962 7.79986 348.385 3.95817 340.749 3.95817H333.522V23.1084H338.01C344.48 23.1084 351.358 21.7697 353.631 14.843H355.088V33.7022H353.864C352.407 28.1725 345.82 25.6696 338.01 25.6696H333.522V36.729C333.522 44.296 335.27 47.1481 342.789 47.1481C352.407 47.1481 361.383 39.5812 366.804 32.7127L368.028 33.2365L362.491 50.2331C352.057 50.2331 341.565 49.9421 326.877 49.9421C324.895 49.9421 322.797 50.0003 320.698 50.1167C318.484 50.1749 316.327 50.2913 314.054 50.2913V48.7779C319.941 48.4869 320.29 42.4333 320.29 35.623V10.9431H320.232Z" fill="white"/>
<path d="M399.562 36.729C399.562 44.296 401.427 47.1481 407.197 47.1481C416.815 47.1481 425.791 39.5812 431.212 32.7127L432.436 33.2365L426.898 50.2331C416.815 50.2331 406.731 49.9421 392.859 49.9421C390.877 49.9421 388.778 50.0003 386.622 50.1167C384.407 50.1749 382.25 50.2913 379.977 50.2913V48.7779C385.922 48.4869 386.214 42.4333 386.214 35.623V10.9431C386.214 5.93725 385.281 3.20146 381.726 2.44476V1.22241C385.806 1.22241 389.42 1.51347 392.917 1.51347C396.414 1.51347 400.028 1.22241 404.108 1.22241V2.44476C400.553 3.20146 399.503 5.93725 399.503 10.9431V36.729H399.562Z" fill="white"/>
<path d="M461.405 30.6171L458.549 36.4961C457.558 38.8244 456.742 41.2109 456.742 42.7243C456.742 46.5078 459.073 48.0794 462.512 48.7779V50.2913C459.423 50.2913 455.926 50.0002 453.128 50.0002C450.33 50.0002 447.124 50.2913 444.035 50.2913V48.9525C446.25 48.4869 451.03 44.4123 454.935 37.02L473.062 2.73577C473.529 1.80445 474.403 0.0582275 474.869 0.0582275H475.044C475.569 0.0582275 476.793 2.03727 477.259 2.91038L496.96 39.8139C500.516 46.3914 502.614 48.0794 505.004 48.5451V50.2913C500.865 50.2913 495.969 50.0002 492.122 50.0002C488.275 50.0002 484.02 50.2913 479.765 50.2913V48.7779C482.213 48.254 483.846 47.9629 483.846 45.0526C483.846 43.3064 482.68 40.4542 481.281 37.7185L477.55 30.6171H461.463H461.405ZM462.629 28.056H476.268L469.39 14.3773L462.629 28.056Z" fill="white"/>
<path d="M28.6192 76.4264C43.2494 76.4264 57.2384 85.2739 57.2384 102.154C57.2384 119.034 43.2494 127.882 28.6192 127.882C13.989 127.882 0 119.034 0 102.154C0 85.2739 14.0473 76.4264 28.6192 76.4264ZM28.6192 125.437C36.9543 125.437 42.4334 118.161 42.4334 102.154C42.4334 86.147 36.9543 78.8711 28.6192 78.8711C20.2841 78.8711 14.8051 86.147 14.8051 102.154C14.8051 118.161 20.2841 125.437 28.6192 125.437Z" fill="white"/>
<path d="M113.486 92.8991L112.495 92.4917C111.213 85.2157 105.501 78.8711 97.6318 78.8711C92.0944 78.8711 87.0817 81.7233 87.0817 87.7187C87.0817 92.026 89.1218 93.714 100.721 95.9841C112.32 98.2542 119.898 100.583 119.898 110.594C119.898 122.876 106.2 127.94 95.8831 127.94C87.8977 127.94 79.2712 126.718 72.1018 123.167L76.2985 109.081L77.4059 109.546C78.63 117.87 85.9159 125.495 94.6008 125.495C100.721 125.495 107.482 123.167 107.482 115.833C107.657 109.954 104.277 108.499 91.1035 105.996C81.7775 104.25 74.6664 101.747 74.6664 91.4439C74.6664 79.5696 88.5389 76.4846 97.9815 76.4846C104.568 76.4846 110.921 78.0563 117.275 79.7443L113.428 92.8991H113.486Z" fill="white"/>
<path d="M133.654 91.444L137.617 77.998H185.18L189.143 91.444H187.453C184.422 87.6023 177.486 80.6756 172.182 80.6756C168.976 80.6756 168.101 82.771 168.101 85.6232V112.049C168.101 118.86 168.393 124.913 174.338 125.204V126.718C169.792 126.718 165.479 126.427 161.457 126.427C157.435 126.427 153.122 126.718 147.992 126.718V125.204C154.52 124.913 154.812 118.86 154.812 112.049V85.6232C154.812 82.8293 153.879 80.6756 150.732 80.6756C145.428 80.6756 138.433 87.5441 135.46 91.444H133.77H133.654Z" fill="white"/>
<path d="M207.912 87.3694C207.912 82.3636 206.979 79.6279 203.424 78.8712V77.6488C205.464 77.6488 207.446 77.707 209.253 77.8234C211.059 77.8816 212.866 77.998 214.557 77.998C223.416 77.998 229.77 77.9398 234.841 77.8234C239.912 77.7652 243.701 77.6488 247.314 77.6488L250.87 90.9783H249.18C243.584 84.2263 236.007 80.3846 228.313 80.3846H221.143V99.5348H225.631C232.101 99.5348 238.979 98.196 241.252 91.2693H242.71V110.129H241.486C240.028 104.599 233.442 102.096 225.631 102.096H221.143V113.155C221.143 120.722 222.892 123.574 230.411 123.574C240.028 123.574 249.005 116.008 254.425 109.139L255.649 109.663L250.112 126.659C239.679 126.659 229.187 126.368 214.498 126.368C212.517 126.368 210.418 126.427 208.262 126.543C206.047 126.601 203.89 126.718 201.617 126.718V125.204C207.562 124.913 207.854 118.86 207.854 112.049V87.3694H207.912Z" fill="white"/>
<path d="M274.535 87.3694C274.535 82.3636 273.602 79.6279 270.047 78.8712V77.6488C273.077 77.6488 276.108 77.707 279.081 77.8234C282.112 77.8816 285.085 77.998 287.824 77.998H301.638C313.937 77.998 319.999 82.5382 319.999 89.3485C319.999 98.7781 308.691 100.932 301.289 100.932V101.106C310.148 102.445 313.762 104.424 317.201 112.923C321.223 122.992 322.739 124.506 326.994 125.554V126.776C323.904 126.776 320.232 126.485 317.434 126.485C314.637 126.485 311.314 126.776 308.167 126.776L304.145 114.727C302.046 109.255 298.899 101.863 291.963 101.863H287.941V112.108C287.941 118.918 288.232 124.971 293.77 125.263V126.776C289.631 126.776 285.26 126.485 281.296 126.485C277.332 126.485 272.961 126.776 268.764 126.776V125.263C274.302 124.971 274.593 118.918 274.593 112.108V87.4277L274.535 87.3694ZM287.883 99.4184H291.904C298.258 99.4184 305.369 97.3811 305.369 89.9888C305.369 82.1308 298.258 80.4427 291.904 80.4427H287.883V99.4184Z" fill="white"/>
<path d="M356.079 113.155C356.079 120.722 357.944 123.574 363.715 123.574C373.332 123.574 382.308 116.008 387.729 109.139L388.953 109.663L383.416 126.659C373.332 126.659 363.248 126.368 349.376 126.368C347.394 126.368 345.296 126.427 343.139 126.543C340.924 126.601 338.768 126.718 336.494 126.718V125.204C342.44 124.913 342.731 118.86 342.731 112.049V87.3694C342.731 82.3636 341.799 79.6279 338.243 78.8712V77.6488C342.323 77.6488 345.937 77.9398 349.434 77.9398C352.932 77.9398 356.545 77.6488 360.625 77.6488V78.8712C357.07 79.6279 356.021 82.3636 356.021 87.3694V113.155H356.079Z" fill="white"/>
<path d="M447.765 94.1796C447.765 88.8245 446.6 80.5591 439.43 78.9875V77.7069C443.394 77.7069 446.891 77.998 449.689 77.998C452.487 77.998 455.693 77.7069 458.432 77.7069V78.9293C452.662 80.6173 450.622 88.8246 450.622 94.2379V107.335C450.622 121.712 443.219 127.998 428.414 127.998C417.747 127.998 405.624 124.389 405.624 113.214V87.4276C405.624 81.083 404.808 79.395 401.777 78.9293V77.7069C405.624 77.7069 409.587 77.998 413.084 77.998C416.582 77.998 420.953 77.7069 424.742 77.7069V78.9293C421.303 79.395 418.971 81.7815 418.971 87.4276V109.663C418.971 118.278 422.469 124.506 431.328 124.506C443.918 124.506 447.824 118.394 447.824 106.694V94.2379L447.765 94.1796Z" fill="white"/>
<path d="M469.099 77.6488C472.071 77.6488 475.161 77.9398 477.9 77.9398C480.64 77.9398 484.02 77.6488 486.993 77.6488L516.895 106.753V94.1215C516.895 88.7664 515.787 80.501 509.375 78.9294V77.6488C512.465 77.6488 515.962 77.9398 518.76 77.9398C521.558 77.9398 524.763 77.6488 527.853 77.6488V78.8712C521.732 80.5592 519.692 88.7664 519.692 94.1797V125.495C519.692 127.416 518.76 127.94 518.235 127.94H518.06C517.361 127.94 516.253 126.659 515.554 125.903L478.192 86.8455V110.245C478.192 115.6 479.357 123.866 485.711 125.437V126.718C482.621 126.718 479.124 126.427 476.326 126.427C473.529 126.427 470.323 126.718 467.234 126.718V125.495C473.354 123.807 475.394 115.6 475.394 110.187V90.9783C475.394 85.0994 475.102 80.1517 469.04 78.8712V77.6488H469.099Z" fill="white"/>
<path d="M544.406 87.3694C544.406 82.3636 543.532 79.6279 540.559 78.8712V77.6488C542.308 77.6488 544.115 77.707 545.864 77.8234C547.612 77.8816 549.419 77.998 551.109 77.998H568.304C578.913 77.998 595 84.6337 595 102.212C595 119.791 578.913 126.427 568.304 126.427H553.208C550.935 126.427 548.486 126.485 545.98 126.601C543.532 126.659 541.084 126.776 538.578 126.776V125.263C544.115 124.971 544.406 118.918 544.406 112.108V87.4277V87.3694ZM557.754 112.049C557.754 122.934 559.211 123.982 565.623 123.982C577.222 123.982 580.078 111.06 580.078 102.212C580.078 88.5336 576.756 80.4427 562.709 80.4427H557.696V112.049H557.754Z" fill="white"/>
</svg>
