<svg width="233" height="138" viewBox="0 0 233 138" fill="none" xmlns="http://www.w3.org/2000/svg">
<path d="M173.805 36.3146L173.314 35.4119C172.958 34.7589 172.42 34.2211 171.756 33.8562L170.852 33.3664L171.756 32.8766C172.41 32.5213 172.949 31.9835 173.314 31.3209L173.805 30.4182L174.295 31.3209C174.651 31.9739 175.189 32.5117 175.853 32.8766L176.757 33.3664L175.853 33.8562C175.199 34.2115 174.66 34.7493 174.295 35.4119L173.805 36.3146Z" fill="#FFF101"/>
<path d="M105.88 38.8928L105.411 38.0279C105.07 37.4022 104.555 36.8869 103.92 36.5372L103.055 36.0679L103.92 35.5987C104.546 35.2582 105.061 34.7429 105.411 34.108L105.88 33.243L106.349 34.108C106.69 34.7337 107.205 35.249 107.84 35.5987L108.705 36.0679L107.84 36.5372C107.214 36.8777 106.699 37.393 106.349 38.0279L105.88 38.8928Z" fill="#FFF101"/>
<path d="M95.7751 23.356L96.4482 25.6607C96.9387 26.5538 97.6695 27.2933 98.5638 27.7735L99.7947 28.4457L98.5638 29.1179C97.6695 29.6077 96.929 30.3375 96.4482 31.2306L95.7751 33.5354L95.1019 31.2306C94.6115 30.3375 93.8806 29.5981 92.9863 29.1179L91.7554 28.4457L92.9863 27.7735C93.8806 27.2837 94.6211 26.5538 95.1019 25.6607L95.7751 23.356Z" fill="#FFF101"/>
<path d="M230.269 100.279L229.817 99.4623C229.49 98.8669 228.999 98.3771 228.403 98.0506L227.586 97.5992L228.403 97.1479C228.999 96.8214 229.49 96.3316 229.817 95.7362L230.269 94.9199L230.721 95.7362C231.048 96.3316 231.538 96.8214 232.134 97.1479L232.952 97.5992L232.134 98.0506C231.538 98.3771 231.048 98.8669 230.721 99.4623L230.269 100.279Z" fill="#FFF101"/>
<path d="M124.84 113.999L124.349 113.096C123.994 112.443 123.455 111.906 122.792 111.541L121.888 111.051L122.792 110.561C123.445 110.206 123.984 109.668 124.349 109.005L124.84 108.103L125.33 109.005C125.686 109.659 126.225 110.196 126.888 110.561L127.792 111.051L126.888 111.541C126.234 111.896 125.696 112.434 125.33 113.096L124.84 113.999Z" fill="#FFF101"/>
<path d="M108.52 58.0072H108.506V63.7212C108.506 64.9818 108.781 66.9276 110.276 67.2975V67.599H105.927V67.3112C107.367 66.9139 107.848 64.9818 107.848 63.7075V58.939C107.848 56.9111 107.408 56.6096 106.599 56.363V56.13C107.312 56.13 108.04 56.1985 108.685 56.1985C109.329 56.1985 110.153 56.13 110.866 56.13L114.214 63.2416L117.26 56.13C117.974 56.13 118.701 56.1985 119.346 56.1985C119.991 56.1985 120.787 56.13 121.5 56.13V56.363C120.444 56.637 120.43 57.2947 120.43 58.2676V64.146C120.43 65.7492 120.499 67.1742 121.802 67.2427V67.599H115.916V67.2427C117.219 67.1742 117.288 65.7492 117.288 64.146V57.7332H117.233L112.828 67.9553H112.595L108.506 57.9935L108.52 58.0072Z" fill="white"/>
<path d="M126.193 57.9798C126.193 56.774 125.85 56.6096 125.287 56.4314V56.1437C126.111 56.1437 126.961 56.2122 127.771 56.2122C128.581 56.2122 129.431 56.1437 130.255 56.1437V56.4314C129.555 56.6096 129.349 57.0343 129.349 58.0209V64.1596C129.349 65.7628 129.418 67.1879 130.584 67.2564V67.6127H124.835V67.2564C126.138 67.1879 126.207 65.7628 126.207 64.1596V57.9798H126.193Z" fill="white"/>
<path d="M145.513 60.597L145.225 60.4874C144.936 58.3635 143.907 56.4315 141.492 56.4315C138.625 56.4315 137.746 59.7338 137.746 61.9125C137.746 64.0912 138.625 67.3935 141.492 67.3935C143.921 67.3935 145.252 65.8999 145.609 63.5431L145.856 63.4472L146.706 66.5302C144.909 67.462 143.317 67.9553 140.985 67.9553C137.541 67.9553 134.234 65.8725 134.234 61.8988C134.234 57.9251 137.541 55.8423 140.985 55.8423C143.194 55.8423 145.142 56.2671 146.583 57.0207L145.499 60.5833L145.513 60.597Z" fill="white"/>
<path d="M153.951 63.0498L153.279 64.4337C153.046 64.9818 152.854 65.5436 152.854 65.8999C152.854 66.7905 153.402 67.1605 154.212 67.3249V67.6812C153.485 67.6812 152.661 67.6127 152.003 67.6127C151.344 67.6127 150.59 67.6812 149.862 67.6812V67.366C150.384 67.2564 151.509 66.2972 152.428 64.557L156.696 56.4863C156.805 56.267 157.011 55.856 157.121 55.856H157.162C157.286 55.856 157.574 56.3218 157.683 56.5274L162.321 65.2148C163.158 66.7631 163.652 67.1605 164.215 67.2701V67.6812C163.241 67.6812 162.088 67.6127 161.182 67.6127C160.277 67.6127 159.275 67.6812 158.273 67.6812V67.3249C158.85 67.2016 159.234 67.1331 159.234 66.448C159.234 66.0369 158.96 65.3655 158.63 64.7215L157.752 63.0498H153.965H153.951ZM154.239 62.4468H157.45L155.831 59.2268L154.239 62.4468Z" fill="white"/>
<path d="M168.318 58.4183C168.318 57.2399 168.098 56.5959 167.261 56.4178V56.13C167.741 56.13 168.208 56.1437 168.633 56.1711C169.059 56.1848 169.484 56.2122 169.882 56.2122C171.967 56.2122 173.463 56.1985 174.657 56.1711C175.851 56.1574 176.742 56.13 177.607 56.13L178.444 59.2679H178.046C176.729 57.6784 174.945 56.774 173.147 56.774H171.446V61.2821H172.503C174.026 61.2821 175.645 60.967 176.18 59.3364H176.523V63.776H176.235C175.892 62.4743 174.341 61.8851 172.503 61.8851H171.446V64.4885C171.446 66.2699 171.858 66.9413 173.628 66.9413C175.892 66.9413 178.005 65.1599 179.281 63.5431L179.569 63.6664L178.266 67.6675C175.809 67.6675 173.34 67.599 169.882 67.599C169.415 67.599 168.921 67.6127 168.427 67.6401C167.906 67.6538 167.398 67.6812 166.863 67.6812V67.3249C168.249 67.2564 168.331 65.8314 168.331 64.2282V58.4183H168.318Z" fill="white"/>
<path d="M186.992 64.4885C186.992 66.2699 187.431 66.9413 188.79 66.9413C191.054 66.9413 193.167 65.1599 194.443 63.5431L194.731 63.6664L193.428 67.6675C191.054 67.6675 188.68 67.599 185.414 67.599C184.948 67.599 184.454 67.6127 183.946 67.6401C183.425 67.6538 182.917 67.6812 182.382 67.6812V67.3249C183.782 67.2564 183.85 65.8314 183.85 64.2282V58.4183C183.85 57.2399 183.631 56.5959 182.794 56.4178V56.13C183.754 56.13 184.605 56.1985 185.428 56.1985C186.251 56.1985 187.102 56.13 188.063 56.13V56.4178C187.226 56.5959 186.979 57.2399 186.979 58.4183V64.4885H186.992Z" fill="white"/>
<path d="M201.551 63.0498L200.878 64.4337C200.645 64.9818 200.453 65.5436 200.453 65.8999C200.453 66.7905 201.002 67.1605 201.811 67.3249V67.6812C201.084 67.6812 200.261 67.6127 199.602 67.6127C198.944 67.6127 198.189 67.6812 197.462 67.6812V67.366C197.983 67.2564 199.108 66.2972 200.028 64.557L204.295 56.4863C204.405 56.267 204.61 55.856 204.72 55.856H204.761C204.885 55.856 205.173 56.3218 205.283 56.5274L209.921 65.2148C210.758 66.7631 211.252 67.1605 211.814 67.2701V67.6812C210.84 67.6812 209.687 67.6127 208.782 67.6127C207.876 67.6127 206.875 67.6812 205.873 67.6812V67.3249C206.449 67.2016 206.833 67.1331 206.833 66.448C206.833 66.0369 206.559 65.3655 206.23 64.7215L205.351 63.0498H201.564H201.551ZM201.839 62.4468H205.05L203.43 59.2268L201.839 62.4468Z" fill="white"/>
<path d="M99.6696 73.8336C103.114 73.8336 106.407 75.9164 106.407 79.8901C106.407 83.8638 103.114 85.9466 99.6696 85.9466C96.2256 85.9466 92.9324 83.8638 92.9324 79.8901C92.9324 75.9164 96.2393 73.8336 99.6696 73.8336ZM99.6696 85.3711C101.632 85.3711 102.922 83.6583 102.922 79.8901C102.922 76.1219 101.632 74.4091 99.6696 74.4091C97.7075 74.4091 96.4177 76.1219 96.4177 79.8901C96.4177 83.6583 97.7075 85.3711 99.6696 85.3711Z" fill="white"/>
<path d="M119.648 77.7114L119.415 77.6155C119.113 75.9027 117.768 74.4091 115.916 74.4091C114.612 74.4091 113.432 75.0805 113.432 76.4919C113.432 77.5059 113.912 77.9032 116.643 78.4376C119.373 78.972 121.157 79.5201 121.157 81.8769C121.157 84.7682 117.933 85.9603 115.504 85.9603C113.624 85.9603 111.593 85.6725 109.906 84.8367L110.894 81.5207L111.154 81.6303C111.443 83.5898 113.158 85.3848 115.202 85.3848C116.643 85.3848 118.235 84.8367 118.235 83.1102C118.276 81.7262 117.48 81.3837 114.379 80.7944C112.184 80.3834 110.51 79.7942 110.51 77.3688C110.51 74.5735 113.775 73.8473 115.998 73.8473C117.549 73.8473 119.044 74.2173 120.54 74.6146L119.634 77.7114H119.648Z" fill="white"/>
<path d="M124.396 77.3689L125.329 74.2036H136.525L137.458 77.3689H137.06C136.347 76.4645 134.714 74.8339 133.465 74.8339C132.711 74.8339 132.505 75.3272 132.505 75.9986V82.2196C132.505 83.8228 132.573 85.2478 133.973 85.3163V85.6726C132.903 85.6726 131.887 85.6041 130.941 85.6041C129.994 85.6041 128.978 85.6726 127.771 85.6726V85.3163C129.308 85.2478 129.376 83.8228 129.376 82.2196V75.9986C129.376 75.3409 129.157 74.8339 128.416 74.8339C127.167 74.8339 125.521 76.4508 124.821 77.3689H124.423H124.396Z" fill="white"/>
<path d="M141.877 76.4098C141.877 75.2314 141.657 74.5873 140.82 74.4092V74.1215C141.3 74.1215 141.767 74.1352 142.192 74.1626C142.618 74.1763 143.043 74.2037 143.441 74.2037C145.526 74.2037 147.022 74.19 148.216 74.1626C149.41 74.1489 150.301 74.1215 151.152 74.1215L151.989 77.2593H151.591C150.274 75.6698 148.49 74.7655 146.679 74.7655H144.991V79.2736H146.048C147.571 79.2736 149.19 78.9584 149.725 77.3278H150.068V81.7674H149.78C149.437 80.4657 147.887 79.8765 146.048 79.8765H144.991V82.48C144.991 84.2613 145.403 84.9327 147.173 84.9327C149.437 84.9327 151.55 83.1514 152.826 81.5345L153.114 81.6578L151.811 85.6589C149.355 85.6589 146.885 85.5904 143.427 85.5904C142.961 85.5904 142.467 85.6041 141.959 85.6315C141.437 85.6452 140.93 85.6727 140.395 85.6727V85.3164C141.794 85.2479 141.863 83.8228 141.863 82.2196V76.4098H141.877Z" fill="white"/>
<path d="M157.56 76.4098C157.56 75.2314 157.34 74.5873 156.503 74.4092V74.1215C157.217 74.1215 157.93 74.1352 158.63 74.1626C159.344 74.1763 160.044 74.2037 160.688 74.2037H163.94C166.836 74.2037 168.263 75.2725 168.263 76.8757C168.263 79.0955 165.601 79.6025 163.858 79.6025V79.6436C165.944 79.9587 166.794 80.4246 167.604 82.4252C168.551 84.7957 168.908 85.152 169.909 85.3986V85.6864C169.182 85.6864 168.318 85.6178 167.659 85.6178C167 85.6178 166.218 85.6864 165.477 85.6864L164.53 82.8499C164.036 81.5619 163.296 79.8217 161.663 79.8217H160.716V82.2333C160.716 83.8365 160.785 85.2616 162.088 85.3301V85.6864C161.114 85.6864 160.085 85.6178 159.152 85.6178C158.219 85.6178 157.19 85.6864 156.202 85.6864V85.3301C157.505 85.2616 157.574 83.8365 157.574 82.2333V76.4235L157.56 76.4098ZM160.702 79.2462H161.649C163.145 79.2462 164.819 78.7666 164.819 77.0264C164.819 75.1765 163.145 74.7792 161.649 74.7792H160.702V79.2462Z" fill="white"/>
<path d="M176.756 82.48C176.756 84.2613 177.195 84.9327 178.554 84.9327C180.818 84.9327 182.931 83.1514 184.207 81.5345L184.495 81.6578L183.191 85.6589C180.818 85.6589 178.444 85.5904 175.178 85.5904C174.712 85.5904 174.218 85.6041 173.71 85.6315C173.189 85.6452 172.681 85.6727 172.146 85.6727V85.3164C173.545 85.2479 173.614 83.8228 173.614 82.2196V76.4098C173.614 75.2314 173.394 74.5873 172.557 74.4092V74.1215C173.518 74.1215 174.369 74.19 175.192 74.19C176.015 74.19 176.866 74.1215 177.826 74.1215V74.4092C176.989 74.5873 176.742 75.2314 176.742 76.4098V82.48H176.756Z" fill="white"/>
<path d="M198.34 78.0129C198.34 76.7523 198.066 74.8066 196.378 74.4366V74.1351C197.311 74.1351 198.134 74.2036 198.793 74.2036C199.451 74.2036 200.206 74.1351 200.851 74.1351V74.4229C199.493 74.8203 199.012 76.7523 199.012 78.0266V81.1097C199.012 84.4942 197.27 85.9741 193.784 85.9741C191.273 85.9741 188.419 85.1245 188.419 82.4937V76.4235C188.419 74.9299 188.227 74.5325 187.514 74.4229V74.1351C188.419 74.1351 189.352 74.2036 190.176 74.2036C190.999 74.2036 192.028 74.1351 192.92 74.1351V74.4229C192.11 74.5325 191.562 75.0943 191.562 76.4235V81.6578C191.562 83.6858 192.385 85.1519 194.471 85.1519C197.434 85.1519 198.354 83.7132 198.354 80.959V78.0266L198.34 78.0129Z" fill="white"/>
<path d="M203.362 74.1215C204.062 74.1215 204.789 74.19 205.434 74.19C206.079 74.19 206.875 74.1215 207.574 74.1215L214.613 80.9727V77.9993C214.613 76.7386 214.353 74.7929 212.843 74.4229V74.1215C213.571 74.1215 214.394 74.19 215.052 74.19C215.711 74.19 216.466 74.1215 217.193 74.1215V74.4092C215.752 74.8066 215.272 76.7386 215.272 78.013V85.3849C215.272 85.8371 215.052 85.9604 214.929 85.9604H214.888C214.723 85.9604 214.462 85.659 214.298 85.4808L205.502 76.2864V81.7948C205.502 83.0555 205.777 85.0012 207.272 85.3712V85.6727C206.545 85.6727 205.722 85.6041 205.063 85.6041C204.405 85.6041 203.65 85.6727 202.923 85.6727V85.3849C204.364 84.9875 204.844 83.0555 204.844 81.7811V77.2593C204.844 75.8754 204.775 74.7107 203.348 74.4092V74.1215H203.362Z" fill="white"/>
<path d="M221.09 76.4098C221.09 75.2314 220.884 74.5873 220.184 74.4092V74.1215C220.596 74.1215 221.021 74.1352 221.433 74.1626C221.845 74.1763 222.27 74.2037 222.668 74.2037H226.716C229.213 74.2037 233 75.7658 233 79.9039C233 84.0421 229.213 85.6041 226.716 85.6041H223.162C222.627 85.6041 222.05 85.6178 221.46 85.6452C220.884 85.6589 220.308 85.6864 219.718 85.6864V85.3301C221.021 85.2616 221.09 83.8365 221.09 82.2333V76.4235V76.4098ZM224.232 82.2196C224.232 84.782 224.575 85.0286 226.084 85.0286C228.815 85.0286 229.487 81.9867 229.487 79.9039C229.487 76.6838 228.705 74.7792 225.398 74.7792H224.218V82.2196H224.232Z" fill="white"/>
<path fill-rule="evenodd" clip-rule="evenodd" d="M99.8187 7.44975C77.5405 18.8033 62.2824 41.9586 62.2824 68.6775C62.2824 95.3964 77.5405 118.552 99.8187 129.905C90.4713 134.669 79.8881 137.355 68.6775 137.355C30.748 137.355 0 106.607 0 68.6775C0 30.748 30.748 0 68.6775 0C79.8881 0 90.4713 2.68608 99.8187 7.44975Z" fill="white"/>
</svg>
