<svg width="69" height="58" viewBox="0 0 69 58" fill="none" xmlns="http://www.w3.org/2000/svg">
<path fill-rule="evenodd" clip-rule="evenodd" d="M41.5554 3.10141C32.2808 7.82801 25.9288 17.4677 25.9288 28.5911C25.9288 39.7144 32.2808 49.3541 41.5554 54.0807C37.664 56.0639 33.2581 57.1821 28.5911 57.1821C12.8007 57.1821 0 44.3815 0 28.5911C0 12.8007 12.8007 0 28.5911 0C33.2581 0 37.664 1.11824 41.5554 3.10141Z" fill="white"/>
<path d="M63.4768 36.0121L62.7044 34.5884C62.144 33.5585 61.2959 32.7104 60.2509 32.1349L58.8272 31.3624L60.2509 30.59C61.2808 30.0297 62.1289 29.1815 62.7044 28.1365L63.4768 26.7128L64.2492 28.1365C64.8096 29.1664 65.6578 30.0145 66.7028 30.59L68.1265 31.3624L66.7028 32.1349C65.6729 32.6952 64.8248 33.5434 64.2492 34.5884L63.4768 36.0121Z" fill="white"/>
<path d="M50.4136 9L51.8226 13.7123C52.8491 15.5383 54.3789 17.0502 56.2508 18.0319L58.8272 19.4063L56.2508 20.7807C54.3789 21.7821 52.829 23.2743 51.8226 25.1003L50.4136 29.8126L49.0046 25.1003C47.9781 23.2743 46.4483 21.7624 44.5764 20.7807L42 19.4063L44.5764 18.0319C46.4483 17.0305 47.9982 15.5383 49.0046 13.7123L50.4136 9Z" fill="white"/>
</svg>
