<svg width="1440" height="335" viewBox="0 0 1440 335" fill="none" xmlns="http://www.w3.org/2000/svg">
<path d="M58.0022 159.977C-51.8277 61.0708 -111.762 146.752 -128 201.956V333.893H807.245C815.297 253.07 761.482 260.851 733.569 274.844C733.569 218.748 663.516 230.865 628.489 243.936C620.759 192.269 572.93 205.801 549.982 219.025C565.442 162.929 525.557 156.286 503.683 159.977C503.683 92.8092 458.055 111.385 435.24 129.069C437.495 70.7584 393.504 104.773 371.227 129.069C345.46 52.6749 300.369 106.772 281.044 143.369C324.203 49.2611 254.74 57.411 214.614 73.2495C193.035 -56.6568 9.5 -3 58.0022 159.977Z" fill="black" stroke="black"/>
<path d="M1294 159.977C1403.83 61.0708 1463.76 146.752 1480 201.956V333.893H544.755C536.703 253.07 590.518 260.851 618.431 274.844C618.431 218.748 688.484 230.866 723.51 243.936C731.24 192.269 779.07 205.801 802.018 219.025C786.558 162.929 826.442 156.286 848.317 159.977C848.317 92.8093 893.945 111.385 916.76 129.069C914.505 70.7585 958.496 104.773 980.773 129.069C1006.54 52.6749 1051.63 106.772 1070.96 143.369C1027.8 49.2612 1097.26 57.4111 1137.39 73.2496C1158.96 -56.6567 1250.79 76.9401 1294 159.977Z" fill="black" stroke="black"/>
</svg>
